<svg xmlns="http://www.w3.org/2000/svg" xmlns:xlink="http://www.w3.org/1999/xlink" viewBox="0 0 23.48 18.299">
  <defs>
    <style>
      .cls-1 {
        fill: url(#linear-gradient);
      }
    </style>
    <linearGradient id="linear-gradient" y1="0.5" x2="1" y2="0.5" gradientUnits="objectBoundingBox">
      <stop offset="0" stop-color="#188091"/>
      <stop offset="0.305" stop-color="#0f8091"/>
      <stop offset="1" stop-color="#008193"/>
    </linearGradient>
  </defs>
  <path id="Path_50" data-name="Path 50" class="cls-1" d="M4998.423,6660.494a.929.929,0,0,1,1.314-1.315l5.545,5.545v-10.482a.929.929,0,1,1,1.859,0v10.482l5.545-5.545a.929.929,0,0,1,1.314,1.315l-7.131,7.131a.944.944,0,0,1-.3.2.928.928,0,0,1-.711,0,.958.958,0,0,1-.3-.2Zm18.6,3.835a.931.931,0,0,0-.93.93v1.1a3.391,3.391,0,0,1-3.387,3.388h-12.986a3.392,3.392,0,0,1-3.388-3.388v-1.1a.929.929,0,1,0-1.859,0v1.1a5.253,5.253,0,0,0,5.247,5.247h12.986a5.253,5.253,0,0,0,5.247-5.247v-1.1A.931.931,0,0,0,5017.022,6664.329Z" transform="translate(-4994.472 -6653.312)"/>
</svg>
