<svg xmlns="http://www.w3.org/2000/svg" viewBox="0 0 23.13 18.026">
  <defs>
    <style>
      .cls-1 {
        fill: #f9f9f9;
      }
    </style>
  </defs>
  <path id="Path_1587" data-name="Path 1587" class="cls-1" d="M8958.685,6679.932a.916.916,0,0,1,1.3-1.295l5.462,5.462v-10.325a.916.916,0,0,1,1.832,0V6684.1l5.462-5.462a.916.916,0,0,1,1.295,1.295l-7.025,7.025a.918.918,0,0,1-1.295,0Zm18.322,3.779a.916.916,0,0,0-.915.915v1.089a3.341,3.341,0,0,1-3.338,3.337h-12.792a3.341,3.341,0,0,1-3.337-3.337v-1.089a.916.916,0,0,0-1.832,0v1.089a5.175,5.175,0,0,0,5.169,5.169h12.792a5.174,5.174,0,0,0,5.169-5.169v-1.089A.916.916,0,0,0,8977.007,6683.711Z" transform="translate(-8954.793 -6672.858)"/>
</svg>
