<svg xmlns="http://www.w3.org/2000/svg" viewBox="0 0 32.162 42.837">
  <defs>
    <style>
      .cls-1 {
        fill: #b4b4b4;
      }
    </style>
  </defs>
  <path id="Path_1893" data-name="Path 1893" class="cls-1" d="M896.634,4349.619h-.06a3.3,3.3,0,0,0-2.227.846,3.472,3.472,0,0,0-3.224-2.353,3.348,3.348,0,0,0-2.39,1.028,3.422,3.422,0,0,0-3.054-1.953h-.064a3.136,3.136,0,0,0-1.967.655v-8.3a3.46,3.46,0,1,0-6.911,0L876.721,4356l-.932-1.132a4.7,4.7,0,0,0-3.32-1.744,4.623,4.623,0,0,0-3.464,1.226l-.811.672a.72.72,0,0,0-.179.887l7.881,15.151a8.13,8.13,0,0,0,7.156,4.5h8.883v-.008a8.458,8.458,0,0,0,8.16-8.707c0-2.147-.006-3.747,0-5.044,0-3.47,0-4.75-.008-8.573A3.536,3.536,0,0,0,896.634,4349.619Zm2,12.178c0,1.3,0,2.9-.005,5.051a7.037,7.037,0,0,1-6.74,7.271h-8.84a6.691,6.691,0,0,1-5.878-3.72l-7.613-14.63.375-.314.028-.025a3.2,3.2,0,0,1,2.4-.863,3.274,3.274,0,0,1,2.307,1.222l2.206,2.684a.721.721,0,0,0,1.277-.457l.013-18.474a2.026,2.026,0,1,1,4.037,0v11.139c0,.039,0,.078,0,.117,0,.017,0,.034,0,.051v4.762a.721.721,0,1,0,1.441,0v-4.906a2.021,2.021,0,0,1,1.967-2.079h.064a2.1,2.1,0,0,1,2.023,2.173v4.357a.72.72,0,1,0,1.441,0v-3.419a1.992,1.992,0,1,1,3.963,0v3.226a.72.72,0,1,0,1.441,0v-1.747a2.094,2.094,0,0,1,2.027-2.158h.06a2.091,2.091,0,0,1,2,2.171C898.645,4357.051,898.643,4358.33,898.638,4361.8Zm-24.19-21.942a.719.719,0,0,0,.72-.72,4.994,4.994,0,0,1,9.988,0,.72.72,0,0,0,1.441,0,6.435,6.435,0,0,0-12.87,0A.72.72,0,0,0,874.448,4339.855Z" transform="translate(-867.933 -4332.724)"/>
</svg>
