<svg xmlns="http://www.w3.org/2000/svg" viewBox="0 0 33.421 33.441">
  <defs>
    <style>
      .cls-1 {
        fill: #5b5b5b;
      }
    </style>
  </defs>
  <g id="Group_230" data-name="Group 230" transform="translate(-5225.956 -34.582)">
    <g id="Group_229" data-name="Group 229">
      <path id="Path_1842" data-name="Path 1842" class="cls-1" d="M5235.7,68.023h13.933a9.755,9.755,0,0,0,9.744-9.744V44.326a9.755,9.755,0,0,0-9.744-9.744H5235.7a9.755,9.755,0,0,0-9.744,9.744V58.279A9.755,9.755,0,0,0,5235.7,68.023Zm-8.839-23.7a8.849,8.849,0,0,1,8.839-8.839h13.933a8.849,8.849,0,0,1,8.839,8.839V58.279a8.849,8.849,0,0,1-8.839,8.839h-5.652L5243.957,60c4.628-.228,10.229-2.91,10.928-9.751l.011-.113h-1.956l-.012.088c-.794,5.563-5.136,7.8-8.974,8.051l0-.974a7.944,7.944,0,0,0,7.665-7.048l.016-.117h-1.913l-.018.081a6.442,6.442,0,0,1-5.753,5.382V54.553a4.882,4.882,0,0,0,4.157-4.305l.016-.116h-1.774l-.01.091a2.994,2.994,0,0,1-2.391,2.668l0-2.759h-2.253l0,2.759a2.994,2.994,0,0,1-2.391-2.668l-.011-.091h-1.773l.015.116a4.884,4.884,0,0,0,4.157,4.305V55.6a6.445,6.445,0,0,1-5.754-5.382l-.017-.081H5234l.016.117a7.942,7.942,0,0,0,7.665,7.048l0,.974c-3.838-.249-8.179-2.488-8.974-8.051l-.012-.088h-1.956l.012.113c.7,6.841,6.3,9.523,10.928,9.751l-.025,7.122H5235.7a8.849,8.849,0,0,1-8.839-8.839Zm9.958,3.37a1.661,1.661,0,1,1,1.661,1.671A1.665,1.665,0,0,1,5236.819,47.7Zm4.189,0a1.669,1.669,0,0,1,1.655-1.67h.007a1.67,1.67,0,0,1,0,3.34h-.007A1.667,1.667,0,0,1,5241.008,47.7Zm-7.853,0a1.662,1.662,0,1,1,1.662,1.671A1.666,1.666,0,0,1,5233.155,47.7Zm-3.566,0a1.662,1.662,0,1,1,1.662,1.671A1.667,1.667,0,0,1,5229.589,47.7Zm22.832,0a1.662,1.662,0,1,1,1.661,1.671A1.667,1.667,0,0,1,5252.421,47.7Zm-7.229,0a1.662,1.662,0,1,1,1.662,1.671A1.666,1.666,0,0,1,5245.192,47.7Zm3.663,0a1.662,1.662,0,1,1,1.662,1.671A1.666,1.666,0,0,1,5248.855,47.7Z"/>
    </g>
  </g>
</svg>
