<svg xmlns="http://www.w3.org/2000/svg" viewBox="0 0 20.439 20.44">
  <defs>
    <style>
      .cls-1 {
        fill: #fff;
      }
    </style>
  </defs>
  <path id="Path_1955" data-name="Path 1955" class="cls-1" d="M1945.774,315.54h-7.665a6.388,6.388,0,0,0-6.387,6.387v7.665a6.388,6.388,0,0,0,6.387,6.388h7.665a6.388,6.388,0,0,0,6.387-6.388v-7.665A6.388,6.388,0,0,0,1945.774,315.54Zm4.471,14.052a4.476,4.476,0,0,1-4.471,4.471h-7.665a4.476,4.476,0,0,1-4.471-4.471v-7.665a4.477,4.477,0,0,1,4.471-4.471h7.665a4.476,4.476,0,0,1,4.471,4.471Zm-8.3-8.942a5.11,5.11,0,1,0,5.11,5.11A5.11,5.11,0,0,0,1941.941,320.65Zm0,8.3a3.194,3.194,0,1,1,3.194-3.194A3.2,3.2,0,0,1,1941.941,328.954Zm5.494-9.368a.681.681,0,1,1-.681.681A.68.68,0,0,1,1947.435,319.586Z" transform="translate(-1931.722 -315.54)"/>
</svg>
