<svg xmlns="http://www.w3.org/2000/svg" viewBox="0 0 25.542 25.542">
  <defs>
    <style>
      .cls-1 {
        fill: #5b5b5b;
      }
    </style>
  </defs>
  <path id="Path_1895" data-name="Path 1895" class="cls-1" d="M1304.949,4211.4h-9.578a7.983,7.983,0,0,0-7.982,7.982v9.578a7.982,7.982,0,0,0,7.982,7.982h9.578a7.982,7.982,0,0,0,7.982-7.982v-9.578A7.983,7.983,0,0,0,1304.949,4211.4Zm5.587,17.56a5.593,5.593,0,0,1-5.587,5.587h-9.578a5.594,5.594,0,0,1-5.588-5.587v-9.578a5.6,5.6,0,0,1,5.588-5.588h9.578a5.594,5.594,0,0,1,5.587,5.588Zm-10.376-11.175a6.385,6.385,0,1,0,6.385,6.386A6.387,6.387,0,0,0,1300.16,4217.788Zm0,10.377a3.991,3.991,0,1,1,3.991-3.991A4,4,0,0,1,1300.16,4228.165Zm6.864-11.706a.851.851,0,1,1-.85.85A.851.851,0,0,1,1307.024,4216.459Z" transform="translate(-1287.389 -4211.403)"/>
</svg>
