<svg xmlns="http://www.w3.org/2000/svg" viewBox="0 0 176.85 41.271">
  <defs>
    <style>
      .cls-1 {
        fill: #fff;
      }
    </style>
  </defs>
  <g id="Group_300" data-name="Group 300" transform="translate(-844.67 -21.315)">
    <g id="Group_299" data-name="Group 299">
      <path id="Path_1973" data-name="Path 1973" class="cls-1" d="M913.407,41.227v.527h-3.723v-.527c.965,0,1.025-.136,1.025-1.191V36.269c0-1.056-.045-1.116-1.025-1.116v-.482a7.835,7.835,0,0,0,2.563-.724l.2.106v6C912.442,41.091,912.517,41.227,913.407,41.227Zm9.3,0v.527h3.723v-.527c-.889,0-.965-.136-.965-1.176v-6l-.2-.106a7.835,7.835,0,0,1-2.563.724v.482c.98,0,1.025.06,1.025,1.116v3.767C923.73,41.091,923.67,41.227,922.705,41.227Zm2.834-9.269a1.025,1.025,0,1,0-1.025,1.146A1.036,1.036,0,0,0,925.539,31.958Zm-29.584,9.193v.6h3.12v-.6c-1.026,0-1.116-.15-1.116-1.25V32.516H898l3.708,9.329h.618l3.617-9.3h.045V39.9c0,1.1-.075,1.25-1.16,1.25v.6h4.205v-.6c-1.116,0-1.206-.135-1.206-1.25V32.38c0-1.131.076-1.251,1.191-1.251v-.618h-3.09l-3.406,8.757h-.045l-3.512-8.757H895.94v.618c1.084,0,1.175.12,1.175,1.19V39.9C897.115,41,897.024,41.151,895.955,41.151Zm14.528-9.193a1.031,1.031,0,0,0,1.01,1.146,1.147,1.147,0,1,0-1.01-1.146Zm6.842,9.268c-.723,0-.753-.105-.753-1.174v-3.9a2.833,2.833,0,0,1,1.914-1.417c.874,0,1.236.528,1.236,1.748v3.557c0,1.085-.061,1.19-.784,1.19v.528h3.3v-.528c-.724,0-.8-.18-.8-1.144V36.434c0-1.582-.679-2.486-2.351-2.486a3.241,3.241,0,0,0-2.517,1.341h-.031l-.06-1.221-.241-.12a6.9,6.9,0,0,1-2.351.723v.482c.859-.015.964.121.964,1.146v3.737c0,1.07-.09,1.19-.964,1.19v.528h3.436Zm31.528-6.013h-.03l-.06-1.145-.2-.121a6.7,6.7,0,0,1-2.382.724v.482c.86,0,.95.106.95,1.085v3.814c0,1.069-.076,1.175-.95,1.175v.527h3.784v-.527c-1.01,0-1.116-.166-1.116-1.175v-3.98c.558-.8,1.01-1.3,1.462-1.3.272,0,.392.151.543.588.15.407.392.588.708.588.392,0,.618-.3.618-.754a1.3,1.3,0,0,0-1.356-1.251C950.059,33.947,949.516,34.339,948.853,35.213Zm7.415,6.014c-.889,0-.964-.136-.964-1.176v-6l-.2-.106a7.834,7.834,0,0,1-2.563.724v.482c.98,0,1.025.06,1.025,1.116v3.767c0,1.055-.06,1.191-1.025,1.191v.527h3.723Zm-26.811.106c-.995,0-1.673-.423-2.05-1.839l-.557.12c.135.648.241,1.206.331,1.869a5.992,5.992,0,0,0,2.472.467c2.049,0,3.2-1.04,3.2-2.321,0-.9-.663-1.673-1.884-2.305-.377-.257-1.1-.543-1.583-.815a1.237,1.237,0,0,1-.632-.964c0-.723.859-.995,1.431-.995.95,0,1.417.362,1.673,1.568l.558-.106c-.166-.769-.226-1.266-.287-1.718a5.947,5.947,0,0,0-2.11-.347c-2.094,0-2.939.965-2.939,1.945a2,2,0,0,0,.5,1.3,7.111,7.111,0,0,0,1.643,1.115,7.254,7.254,0,0,1,1.537.935,1.066,1.066,0,0,1,.3.783C931.054,40.534,930.693,41.333,929.457,41.333Zm24.9-8.229a1.147,1.147,0,1,0-1.01-1.146A1.031,1.031,0,0,0,954.354,33.1Zm9.962,4.792a4.128,4.128,0,0,1-1.025,3.135,3.785,3.785,0,0,1-2.7.919c-2.216,0-3.723-1.115-3.723-4.054,0-2.276,1.085-3.948,3.723-3.948C963.412,33.948,964.316,35.832,964.316,37.9Zm-1.839.045c0-1.7-.331-3.391-1.9-3.391-1.643,0-1.9,1.854-1.9,3.391s.271,3.391,1.9,3.391C962.085,41.332,962.477,39.765,962.477,37.941ZM936.389,41.95a2.847,2.847,0,0,0,1.96-.663l-.317-.5a1.741,1.741,0,0,1-1.1.407c-.588,0-.874-.377-.874-1.3V34.776h1.914v-.633h-1.914V31.852h-.528c-.422,1.628-1,2.321-2.185,2.427v.5h1V39.9A1.821,1.821,0,0,0,936.389,41.95Zm9.1-4.084h-4.944a4.589,4.589,0,0,0,.543,2.472,1.9,1.9,0,0,0,1.612.919,2.442,2.442,0,0,0,2.216-1.432l.557.272A3.3,3.3,0,0,1,942.4,41.95c-1.854,0-3.678-.919-3.678-4.174,0-1.945,1.07-3.829,3.5-3.829C945,33.947,945.493,36.464,945.493,37.866Zm-1.764-.618c0-.859-.135-2.7-1.522-2.7-.708,0-1.6.573-1.658,2.7Zm.256-6.737-2.4,2.185.362.528,2.8-1.613Z"/>
      <path id="Path_1974" data-name="Path 1974" class="cls-1" d="M903.544,54.018h.843L903.83,56.9h-7.89v-.636c1.161,0,1.288-.159,1.288-1.337V46.987c0-1.178-.127-1.305-1.288-1.305V45.03h4.533v.652c-1.225,0-1.3.111-1.3,1.336v8.336c0,.684.111.748.525.748h2.275C902.939,56.1,903.1,55.943,903.544,54.018Zm37.734-1.193a4.359,4.359,0,0,1-1.082,3.309,4,4,0,0,1-2.847.97c-2.339,0-3.929-1.177-3.929-4.279,0-2.4,1.145-4.168,3.929-4.168C940.324,48.657,941.278,50.645,941.278,52.825Zm-1.941.047c0-1.8-.35-3.579-2-3.579-1.735,0-2.005,1.957-2.005,3.579,0,1.607.287,3.579,2.005,3.579C938.924,56.451,939.337,54.8,939.337,52.872Zm60.182-.079H994.3a4.85,4.85,0,0,0,.572,2.609,2.009,2.009,0,0,0,1.7.97,2.576,2.576,0,0,0,2.338-1.511l.589.286a3.489,3.489,0,0,1-3.245,1.957c-1.957,0-3.882-.97-3.882-4.406,0-2.053,1.13-4.041,3.691-4.041C998.994,48.657,999.519,51.314,999.519,52.793Zm-1.862-.653c0-.906-.143-2.847-1.606-2.847-.748,0-1.687.6-1.75,2.847Zm-85.284,2.975V48.768l-.239-.111a8.246,8.246,0,0,1-2.434.763v.51c.795,0,.859.1.859,1.145v3.961A2.391,2.391,0,0,1,908.7,56.2c-1.384,0-1.384-1.543-1.384-2.195V48.768l-.255-.111a8.481,8.481,0,0,1-2.449.763v.51c.811,0,.875.111.875,1.161v3.117c0,1.83.7,2.9,2.529,2.9a3.17,3.17,0,0,0,2.529-1.193h.048l.08,1.1.175.1a9.524,9.524,0,0,1,2.513-.238v-.509C912.436,56.357,912.373,56.229,912.373,55.115Zm69.471-6.458c-.81,0-1.384.413-2.084,1.336h-.032l-.063-1.209-.207-.127a7.05,7.05,0,0,1-2.513.763v.509c.907,0,1,.112,1,1.146V55.1c0,1.129-.079,1.24-1,1.24V56.9h3.993V56.34c-1.066,0-1.178-.175-1.178-1.24V50.9c.589-.843,1.067-1.368,1.544-1.368.286,0,.413.159.572.62.16.43.414.621.748.621.414,0,.652-.318.652-.8A1.375,1.375,0,0,0,981.844,48.657Zm10.007,7.715v.477a9.784,9.784,0,0,0-2.434.255l-.143-.111-.064-.875h-.031a2.807,2.807,0,0,1-2.2.97c-1.781,0-3.388-1.241-3.388-4.327,0-2.131,1.05-4.1,3.579-4.1a2.65,2.65,0,0,1,1.957.811h.032v-2.5c0-1-.064-1.177-1.018-1.177v-.51a7.19,7.19,0,0,0,2.608-.763l.223.111V55.29C990.976,56.276,991.087,56.357,991.851,56.372Zm-2.688-5.917a2.086,2.086,0,0,0-1.639-1.067c-1.893,0-2.005,2.355-2.005,3.485,0,2.211.827,3.467,1.941,3.467a2.217,2.217,0,0,0,1.7-1.082Zm30.925-1.8c-.811,0-1.384.413-2.083,1.336h-.032l-.064-1.209-.206-.127a7.061,7.061,0,0,1-2.514.763v.509c.907,0,1,.112,1,1.146V55.1c0,1.129-.08,1.24-1,1.24V56.9h3.993V56.34c-1.066,0-1.177-.175-1.177-1.24V50.9c.588-.843,1.065-1.368,1.542-1.368.287,0,.414.159.573.62.16.43.414.621.748.621.413,0,.652-.318.652-.8A1.375,1.375,0,0,0,1020.088,48.657Zm-5.457,4.136h-5.217a4.85,4.85,0,0,0,.572,2.609,2.008,2.008,0,0,0,1.7.97,2.577,2.577,0,0,0,2.338-1.511l.588.286a3.486,3.486,0,0,1-3.245,1.957c-1.956,0-3.881-.97-3.881-4.406,0-2.053,1.13-4.041,3.691-4.041C1014.107,48.657,1014.631,51.314,1014.631,52.793Zm-1.861-.653c0-.906-.143-2.847-1.606-2.847-.748,0-1.687.6-1.75,2.847Zm-8.463,4.2c-.732,0-2.179-.429-2.179-3.547,0-2.466.986-3.5,1.988-3.5a1.171,1.171,0,0,1,1.13.875c.207.462.429.938.938.938.382,0,.6-.3.6-.731,0-.811-1.035-1.718-2.705-1.718-2.418,0-3.881,1.686-3.881,4.168,0,1.256.366,4.279,3.754,4.279a3.427,3.427,0,0,0,3.023-1.8l-.573-.319A2.5,2.5,0,0,1,1004.307,56.34Zm-71.413.032v.477a9.788,9.788,0,0,0-2.434.255l-.143-.111-.063-.875h-.032a2.807,2.807,0,0,1-2.2.97c-1.781,0-3.388-1.241-3.388-4.327,0-2.131,1.05-4.1,3.579-4.1a2.649,2.649,0,0,1,1.957.811h.032v-2.5c0-1-.064-1.177-1.018-1.177v-.51a7.184,7.184,0,0,0,2.608-.763l.224.111V55.29C932.02,56.276,932.131,56.357,932.894,56.372Zm-2.688-5.917a2.086,2.086,0,0,0-1.639-1.067c-1.893,0-2,2.355-2,3.485,0,2.211.827,3.467,1.941,3.467a2.215,2.215,0,0,0,1.7-1.082ZM918.45,56.229h-2.577l4.454-7.079-.207-.287h-5.87l-.35,2.2h.636c.255-1.209.4-1.527,1.257-1.527h2.339L913.6,56.6l.191.3h6.236l.349-2.306h-.62C919.436,55.927,919.261,56.229,918.45,56.229Zm33.344-.127h-2.387c-.317,0-.445-.064-.445-.716V51.138H950.7c.716,0,.843.112.843,1.655h.779V48.721h-.779c0,1.431-.143,1.622-.859,1.622h-1.718V46.557c0-.62.047-.748.573-.748h1.845c.891,0,1.066.1,1.479,1.862h.827l-.508-2.641h-7.446v.652c1.162,0,1.289.127,1.289,1.305v7.954c0,1.161-.127,1.319-1.289,1.319V56.9h7.859l.541-2.736H953.3C952.891,55.959,952.716,56.1,951.794,56.1Zm24.849.111.126.541a3.577,3.577,0,0,1-1.4.238,1.269,1.269,0,0,1-1.416-.89h-.063a3.248,3.248,0,0,1-2.514,1A2.19,2.19,0,0,1,970.12,53a8.263,8.263,0,0,1,2.641-.986l1.081-.271v-.732c0-1.225-.477-1.718-1.384-1.718a1.641,1.641,0,0,0-1.59,1.257.763.763,0,0,1-.827.54.61.61,0,0,1-.684-.652c0-.795,1-1.781,3.229-1.781,1.638,0,3.086.429,3.086,2.688v3.834c0,.827.175,1.161.509,1.161A.879.879,0,0,0,976.643,56.213Zm-2.8-3.85c-1.431.43-2.958,1.018-2.958,2.355,0,1.256.811,1.479,1.352,1.479a2.2,2.2,0,0,0,1.606-.795Zm-11.39,2.768V51.282c0-1.671-.716-2.625-2.482-2.625a3.421,3.421,0,0,0-2.656,1.416h-.032l-.064-1.289-.254-.127a7.243,7.243,0,0,1-2.482.763v.509c.907-.015,1.018.127,1.018,1.209v3.946c0,1.129-.095,1.256-1.018,1.256V56.9h3.627V56.34c-.763,0-.795-.111-.795-1.24V50.979a2.991,2.991,0,0,1,2.02-1.495c.923,0,1.3.557,1.3,1.846v3.754c0,1.145-.064,1.256-.828,1.256V56.9h3.484V56.34C962.531,56.34,962.452,56.15,962.452,55.131Zm4.836,1.177c-.62,0-.922-.4-.922-1.367V49.532h2.02v-.669h-2.02V46.446h-.557c-.446,1.718-1.05,2.449-2.307,2.561v.525h1.05v5.409a1.924,1.924,0,0,0,2.164,2.163,3.009,3.009,0,0,0,2.068-.7l-.334-.525A1.847,1.847,0,0,1,967.288,56.308Z"/>
      <path id="Path_1975" data-name="Path 1975" class="cls-1" d="M856.7,62.586h17.2A12.04,12.04,0,0,0,885.916,50.56V33.341a12.04,12.04,0,0,0-12.025-12.026H856.7A12.039,12.039,0,0,0,844.67,33.341V50.56A12.039,12.039,0,0,0,856.7,62.586ZM845.787,33.341A10.921,10.921,0,0,1,856.7,22.432h17.2A10.921,10.921,0,0,1,884.8,33.341V50.56a10.921,10.921,0,0,1-10.908,10.909h-6.976l-.03-8.789c5.711-.282,12.624-3.592,13.486-12.034l.014-.14h-2.413l-.016.109c-.98,6.865-6.338,9.629-11.075,9.935l0-1.2c4.053-.3,8.632-2.73,9.46-8.7l.02-.144H874l-.021.1a7.948,7.948,0,0,1-7.1,6.641l0-1.285A6.025,6.025,0,0,0,872,40.65l.02-.144h-2.189l-.013.112a3.693,3.693,0,0,1-2.951,3.292l0-3.4h-2.78l-.005,3.4a3.7,3.7,0,0,1-2.952-3.292l-.013-.112h-2.188l.019.144a6.025,6.025,0,0,0,5.13,5.312l0,1.285a7.948,7.948,0,0,1-7.1-6.641l-.021-.1h-2.362l.02.144c.828,5.968,5.406,8.4,9.459,8.7v1.2c-4.737-.306-10.1-3.07-11.076-9.935l-.015-.109h-2.413l.014.14c.862,8.442,7.774,11.752,13.486,12.034l-.03,8.789H856.7A10.921,10.921,0,0,1,845.787,50.56ZM858.076,37.5a2.05,2.05,0,1,1,2.05,2.061A2.055,2.055,0,0,1,858.076,37.5Zm5.17,0a2.058,2.058,0,0,1,2.043-2.061h.008a2.061,2.061,0,0,1,0,4.121h-.008A2.056,2.056,0,0,1,863.246,37.5Zm-9.691,0a2.051,2.051,0,1,1,2.05,2.061A2.056,2.056,0,0,1,853.555,37.5Zm-4.4,0a2.051,2.051,0,1,1,2.051,2.061A2.056,2.056,0,0,1,849.154,37.5Zm28.177,0a2.051,2.051,0,1,1,2.05,2.061A2.057,2.057,0,0,1,877.331,37.5Zm-8.921,0a2.051,2.051,0,1,1,2.05,2.061A2.056,2.056,0,0,1,868.41,37.5Zm4.52,0a2.051,2.051,0,1,1,2.051,2.061A2.056,2.056,0,0,1,872.93,37.5Z"/>
    </g>
  </g>
</svg>
