<svg xmlns="http://www.w3.org/2000/svg" viewBox="0 0 154.783 89.004">
  <defs>
    <style>
      .cls-1 {
        fill: #bbb;
      }
    </style>
  </defs>
  <g id="Group_256" data-name="Group 256" transform="translate(-1309.275 -4433.208)">
    <path id="Path_1904" data-name="Path 1904" class="cls-1" d="M1364.868,4501.194V4493.8l-.241-.13a9.649,9.649,0,0,1-3.158.892v.594c1.208,0,1.263.074,1.263,1.375v4.644c0,1.3-.074,1.467-1.263,1.467v.65h4.588v-.65C1364.961,4502.642,1364.868,4502.475,1364.868,4501.194Z"/>
    <path id="Path_1905" data-name="Path 1905" class="cls-1" d="M1377.517,4502.642v.65h4.589v-.65c-1.1,0-1.189-.167-1.189-1.448V4493.8l-.241-.13a9.649,9.649,0,0,1-3.159.892v.594c1.209,0,1.264.074,1.264,1.375v4.644C1378.781,4502.475,1378.707,4502.642,1377.517,4502.642Z"/>
    <path id="Path_1906" data-name="Path 1906" class="cls-1" d="M1381.01,4491.217a1.263,1.263,0,1,0-1.263,1.413A1.276,1.276,0,0,0,1381.01,4491.217Z"/>
    <path id="Path_1907" data-name="Path 1907" class="cls-1" d="M1344.547,4502.549v.744h3.845v-.744c-1.264,0-1.375-.185-1.375-1.541v-9.1h.056l4.569,11.5h.763l4.458-11.461h.055v9.065c0,1.356-.092,1.541-1.43,1.541v.744h5.183v-.744c-1.375,0-1.486-.167-1.486-1.541v-9.27c0-1.393.093-1.542,1.467-1.542v-.761h-3.808l-4.2,10.793h-.056l-4.328-10.793h-3.734v.761c1.337,0,1.449.149,1.449,1.468v9.344C1345.977,4502.364,1345.865,4502.549,1344.547,4502.549Z"/>
    <path id="Path_1908" data-name="Path 1908" class="cls-1" d="M1362.453,4491.217a1.271,1.271,0,0,0,1.245,1.413,1.413,1.413,0,1,0-1.245-1.413Z"/>
    <path id="Path_1909" data-name="Path 1909" class="cls-1" d="M1370.887,4502.642c-.892,0-.929-.13-.929-1.448v-4.812a3.492,3.492,0,0,1,2.359-1.746c1.077,0,1.523.65,1.523,2.155v4.384c0,1.337-.074,1.467-.966,1.467v.65h4.069v-.65c-.892,0-.985-.223-.985-1.411v-4.5c0-1.95-.836-3.065-2.9-3.065a4,4,0,0,0-3.1,1.653h-.037l-.075-1.5-.3-.149a8.485,8.485,0,0,1-2.9.892v.594c1.059-.018,1.189.149,1.189,1.412v4.607c0,1.319-.111,1.467-1.189,1.467v.65h4.236Z"/>
    <path id="Path_1910" data-name="Path 1910" class="cls-1" d="M1409.746,4495.23h-.037l-.074-1.412-.241-.148a8.262,8.262,0,0,1-2.936.892v.594c1.059,0,1.171.13,1.171,1.337v4.7c0,1.318-.094,1.449-1.171,1.449v.649h4.663v-.649c-1.245,0-1.375-.205-1.375-1.449v-4.9c.688-.985,1.245-1.6,1.8-1.6.335,0,.483.187.669.725.185.5.483.724.873.724.483,0,.761-.371.761-.928a1.6,1.6,0,0,0-1.671-1.542C1411.233,4493.67,1410.564,4494.153,1409.746,4495.23Z"/>
    <path id="Path_1911" data-name="Path 1911" class="cls-1" d="M1418.886,4502.642c-1.1,0-1.189-.167-1.189-1.448V4493.8l-.242-.13a9.649,9.649,0,0,1-3.158.892v.594c1.208,0,1.263.074,1.263,1.375v4.644c0,1.3-.074,1.467-1.263,1.467v.65h4.589Z"/>
    <path id="Path_1912" data-name="Path 1912" class="cls-1" d="M1385.84,4502.773c-1.226,0-2.062-.521-2.527-2.267l-.687.148c.167.8.3,1.487.409,2.3a7.385,7.385,0,0,0,3.046.576c2.526,0,3.939-1.282,3.939-2.861,0-1.114-.818-2.062-2.323-2.842-.464-.316-1.356-.669-1.951-1a1.528,1.528,0,0,1-.779-1.189c0-.891,1.059-1.226,1.764-1.226,1.171,0,1.746.446,2.062,1.932l.688-.13c-.2-.948-.279-1.56-.354-2.117a7.292,7.292,0,0,0-2.6-.428c-2.582,0-3.623,1.189-3.623,2.4a2.461,2.461,0,0,0,.614,1.6,8.753,8.753,0,0,0,2.024,1.374,8.933,8.933,0,0,1,1.9,1.153,1.313,1.313,0,0,1,.371.965C1387.808,4501.788,1387.363,4502.773,1385.84,4502.773Z"/>
    <path id="Path_1913" data-name="Path 1913" class="cls-1" d="M1416.526,4492.63a1.413,1.413,0,1,0-1.244-1.413A1.27,1.27,0,0,0,1416.526,4492.63Z"/>
    <path id="Path_1914" data-name="Path 1914" class="cls-1" d="M1424.217,4493.67c-3.251,0-4.589,2.062-4.589,4.867,0,3.623,1.858,5,4.589,5a4.666,4.666,0,0,0,3.325-1.133,5.087,5.087,0,0,0,1.263-3.864C1428.805,4495.992,1427.691,4493.67,1424.217,4493.67Zm-.019,9.1c-2.006,0-2.34-2.3-2.34-4.179,0-1.895.315-4.18,2.34-4.18,1.932,0,2.34,2.081,2.34,4.18C1426.538,4500.841,1426.055,4502.772,1424.2,4502.772Z"/>
    <path id="Path_1915" data-name="Path 1915" class="cls-1" d="M1394.384,4503.534a3.511,3.511,0,0,0,2.415-.818l-.39-.612a2.149,2.149,0,0,1-1.356.5c-.724,0-1.077-.464-1.077-1.6v-6.316h2.359v-.781h-2.359v-2.823h-.651c-.52,2.006-1.226,2.86-2.693,2.991v.613h1.226v6.316A2.246,2.246,0,0,0,1394.384,4503.534Z"/>
    <path id="Path_1916" data-name="Path 1916" class="cls-1" d="M1401.573,4493.669c-2.991,0-4.309,2.323-4.309,4.719,0,4.013,2.247,5.146,4.532,5.146a4.069,4.069,0,0,0,3.789-2.285l-.687-.334a3.009,3.009,0,0,1-2.731,1.764,2.341,2.341,0,0,1-1.987-1.133,5.647,5.647,0,0,1-.669-3.046h6.093C1405.6,4496.772,1404.992,4493.669,1401.573,4493.669Zm-2.062,4.069c.075-2.619,1.171-3.326,2.044-3.326,1.709,0,1.876,2.267,1.876,3.326Z"/>
    <path id="Path_1917" data-name="Path 1917" class="cls-1" d="M1403.746,4489.435l-2.954,2.693.446.65,3.455-1.988Z"/>
    <path id="Path_1918" data-name="Path 1918" class="cls-1" d="M1316.706,4520.977h-2.8c-.511,0-.647-.079-.647-.922V4509.78c0-1.509.1-1.646,1.607-1.646v-.8h-5.588v.8c1.431,0,1.588.156,1.588,1.607v9.784c0,1.452-.157,1.647-1.588,1.647v.785H1319l.687-3.55h-1.04C1318.1,4520.78,1317.9,4520.977,1316.706,4520.977Z"/>
    <path id="Path_1919" data-name="Path 1919" class="cls-1" d="M1360.314,4511.8c-3.431,0-4.843,2.176-4.843,5.137,0,3.823,1.96,5.275,4.843,5.275a4.929,4.929,0,0,0,3.509-1.2,5.373,5.373,0,0,0,1.333-4.079C1365.156,4514.251,1363.98,4511.8,1360.314,4511.8Zm-.02,9.607c-2.118,0-2.471-2.431-2.471-4.411,0-2,.333-4.411,2.471-4.411,2.039,0,2.47,2.195,2.47,4.411C1362.764,4519.368,1362.255,4521.407,1360.294,4521.407Z"/>
    <path id="Path_1920" data-name="Path 1920" class="cls-1" d="M1432.686,4511.8c-3.157,0-4.549,2.451-4.549,4.98,0,4.236,2.373,5.432,4.784,5.432a4.3,4.3,0,0,0,4-2.412l-.725-.353a3.177,3.177,0,0,1-2.883,1.863,2.474,2.474,0,0,1-2.1-1.2,5.977,5.977,0,0,1-.7-3.216h6.431C1436.941,4515.075,1436.294,4511.8,1432.686,4511.8Zm-2.176,4.294c.078-2.765,1.235-3.51,2.156-3.51,1.8,0,1.981,2.392,1.981,3.51Z"/>
    <path id="Path_1921" data-name="Path 1921" class="cls-1" d="M1329.529,4519.76v-7.822l-.294-.138a10.213,10.213,0,0,1-3,.941v.628c.981,0,1.059.117,1.059,1.412v4.881a2.95,2.95,0,0,1-2.294,1.432c-1.706,0-1.706-1.9-1.706-2.706v-6.45l-.314-.138a10.51,10.51,0,0,1-3.019.941v.628c1,0,1.079.137,1.079,1.431v3.843c0,2.254.862,3.568,3.117,3.568a3.909,3.909,0,0,0,3.118-1.47h.059l.1,1.353.215.117a11.757,11.757,0,0,1,3.1-.293v-.628C1329.607,4521.29,1329.529,4521.133,1329.529,4519.76Z"/>
    <path id="Path_1922" data-name="Path 1922" class="cls-1" d="M1415.156,4511.8c-1,0-1.7.51-2.568,1.647h-.04l-.078-1.49-.254-.157a8.687,8.687,0,0,1-3.1.941v.627c1.118,0,1.235.138,1.235,1.412v4.961c0,1.392-.1,1.529-1.235,1.529v.686h4.922v-.686c-1.314,0-1.451-.216-1.451-1.529v-5.177c.726-1.038,1.314-1.686,1.9-1.686.353,0,.51.2.706.765.2.529.509.765.921.765.51,0,.8-.392.8-.981A1.7,1.7,0,0,0,1415.156,4511.8Z"/>
    <path id="Path_1923" data-name="Path 1923" class="cls-1" d="M1426.412,4519.976v-13.137l-.275-.137a8.874,8.874,0,0,1-3.215.941v.628c1.176,0,1.254.216,1.254,1.451v3.078h-.039a3.262,3.262,0,0,0-2.412-1c-3.117,0-4.411,2.432-4.411,5.059,0,3.8,1.98,5.333,4.176,5.333a3.458,3.458,0,0,0,2.706-1.2h.039l.078,1.078.177.137a12.04,12.04,0,0,1,3-.313v-.588C1426.549,4521.29,1426.412,4521.191,1426.412,4519.976Zm-2.236-.039a2.73,2.73,0,0,1-2.1,1.333c-1.373,0-2.392-1.548-2.392-4.274,0-1.392.138-4.294,2.471-4.294a2.568,2.568,0,0,1,2.019,1.314Z"/>
    <path id="Path_1924" data-name="Path 1924" class="cls-1" d="M1462.294,4511.8c-1,0-1.706.51-2.569,1.647h-.039l-.078-1.49-.255-.157a8.688,8.688,0,0,1-3.1.941v.627c1.118,0,1.235.138,1.235,1.412v4.961c0,1.392-.1,1.529-1.235,1.529v.686h4.921v-.686c-1.313,0-1.451-.216-1.451-1.529v-5.177c.725-1.038,1.314-1.686,1.9-1.686.353,0,.51.2.706.765.2.529.51.765.921.765.51,0,.8-.392.8-.981A1.7,1.7,0,0,0,1462.294,4511.8Z"/>
    <path id="Path_1925" data-name="Path 1925" class="cls-1" d="M1451.313,4511.8c-3.156,0-4.549,2.451-4.549,4.98,0,4.236,2.373,5.432,4.785,5.432a4.3,4.3,0,0,0,4-2.412l-.725-.353a3.176,3.176,0,0,1-2.882,1.863,2.476,2.476,0,0,1-2.1-1.2,5.976,5.976,0,0,1-.705-3.216h6.431C1455.568,4515.075,1454.921,4511.8,1451.313,4511.8Zm-2.176,4.294c.078-2.765,1.235-3.51,2.157-3.51,1.8,0,1.98,2.392,1.98,3.51Z"/>
    <path id="Path_1926" data-name="Path 1926" class="cls-1" d="M1442.843,4521.27c-.9,0-2.686-.529-2.686-4.372,0-3.039,1.215-4.314,2.45-4.314a1.442,1.442,0,0,1,1.392,1.078c.256.569.53,1.157,1.157,1.157.471,0,.745-.372.745-.9,0-1-1.274-2.117-3.333-2.117-2.98,0-4.784,2.078-4.784,5.137,0,1.549.451,5.274,4.628,5.274a4.224,4.224,0,0,0,3.725-2.215l-.707-.392A3.074,3.074,0,0,1,1442.843,4521.27Z"/>
    <path id="Path_1927" data-name="Path 1927" class="cls-1" d="M1353.745,4519.976v-13.137l-.275-.137a8.868,8.868,0,0,1-3.215.941v.628c1.176,0,1.255.216,1.255,1.451v3.078h-.039a3.265,3.265,0,0,0-2.413-1c-3.117,0-4.411,2.432-4.411,5.059,0,3.8,1.981,5.333,4.176,5.333a3.458,3.458,0,0,0,2.706-1.2h.04l.078,1.078.176.137a12.044,12.044,0,0,1,3-.313v-.588C1353.882,4521.29,1353.745,4521.191,1353.745,4519.976Zm-2.235-.039a2.73,2.73,0,0,1-2.1,1.333c-1.373,0-2.393-1.548-2.393-4.274,0-1.392.137-4.294,2.471-4.294a2.568,2.568,0,0,1,2.02,1.314Z"/>
    <path id="Path_1928" data-name="Path 1928" class="cls-1" d="M1337.02,4521.133h-3.176l5.489-8.725-.254-.354h-7.235l-.432,2.707h.784c.314-1.491.49-1.883,1.549-1.883h2.883l-5.588,8.706.235.373h7.686l.431-2.843h-.765C1338.235,4520.761,1338.02,4521.133,1337.02,4521.133Z"/>
    <path id="Path_1929" data-name="Path 1929" class="cls-1" d="M1378.117,4520.976h-2.941c-.391,0-.549-.078-.549-.882v-5.236h2.138c.882,0,1.039.138,1.039,2.041h.96v-5.02h-.96c0,1.764-.177,2-1.059,2h-2.118v-4.666c0-.765.059-.922.707-.922h2.273c1.1,0,1.314.118,1.824,2.294h1.02l-.628-3.255h-9.176v.8c1.431,0,1.588.156,1.588,1.607v9.8c0,1.431-.157,1.627-1.588,1.627v.784h9.686l.667-3.372h-1.02C1379.47,4520.8,1379.255,4520.976,1378.117,4520.976Z"/>
    <path id="Path_1930" data-name="Path 1930" class="cls-1" d="M1408.176,4521.27c-.412,0-.627-.411-.627-1.431v-4.725c0-2.785-1.785-3.314-3.8-3.314-2.745,0-3.98,1.215-3.98,2.2a.751.751,0,0,0,.843.8.942.942,0,0,0,1.02-.666,2.02,2.02,0,0,1,1.96-1.548c1.118,0,1.706.607,1.706,2.117v.9l-1.333.333a10.222,10.222,0,0,0-3.255,1.216,2.7,2.7,0,0,0,1.549,5.058,4,4,0,0,0,3.1-1.234h.078a1.564,1.564,0,0,0,1.745,1.1,4.41,4.41,0,0,0,1.725-.294l-.156-.666A1.081,1.081,0,0,1,1408.176,4521.27Zm-2.882-1.156a2.724,2.724,0,0,1-1.981.98c-.666,0-1.666-.275-1.666-1.823,0-1.648,1.883-2.373,3.647-2.9Z"/>
    <path id="Path_1931" data-name="Path 1931" class="cls-1" d="M1391.255,4519.78v-4.745c0-2.059-.883-3.235-3.059-3.235a4.221,4.221,0,0,0-3.275,1.745h-.039l-.078-1.588-.314-.157a8.927,8.927,0,0,1-3.059.941v.627c1.118-.019,1.255.157,1.255,1.49v4.863c0,1.392-.118,1.549-1.255,1.549v.686h4.471v-.686c-.941,0-.981-.137-.981-1.529v-5.078a3.684,3.684,0,0,1,2.491-1.843c1.137,0,1.608.686,1.608,2.274v4.627c0,1.412-.079,1.549-1.02,1.549v.686h4.294v-.686C1391.352,4521.27,1391.255,4521.035,1391.255,4519.78Z"/>
    <path id="Path_1932" data-name="Path 1932" class="cls-1" d="M1397.215,4521.231c-.764,0-1.136-.49-1.136-1.686v-6.667h2.489v-.824h-2.489v-2.979h-.687c-.549,2.117-1.294,3.019-2.843,3.157v.646h1.294v6.667a2.371,2.371,0,0,0,2.667,2.666,3.707,3.707,0,0,0,2.548-.862l-.411-.647A2.278,2.278,0,0,1,1397.215,4521.231Z"/>
    <path id="Path_1933" data-name="Path 1933" class="cls-1" d="M1376.07,4484.076h21.194a14.839,14.839,0,0,0,14.821-14.822V4448.03a14.838,14.838,0,0,0-14.821-14.822H1376.07a14.838,14.838,0,0,0-14.822,14.822v21.224A14.839,14.839,0,0,0,1376.07,4484.076Zm-13.446-36.046a13.461,13.461,0,0,1,13.446-13.445h21.194a13.461,13.461,0,0,1,13.445,13.445v21.224a13.461,13.461,0,0,1-13.445,13.445h-8.6l-.037-10.833c7.04-.347,15.559-4.427,16.622-14.832l.018-.172h-2.975l-.019.134c-1.208,8.462-7.812,11.868-13.651,12.246l0-1.482c5-.366,10.638-3.365,11.659-10.721l.025-.177H1397.4l-.026.123c-1,4.67-4.263,7.719-8.752,8.186l0-1.584a7.429,7.429,0,0,0,6.324-6.548l.024-.177h-2.7l-.016.138a4.553,4.553,0,0,1-3.637,4.057l-.007-4.2h-3.426l-.007,4.2a4.555,4.555,0,0,1-3.637-4.057l-.016-.138h-2.7l.024.177a7.429,7.429,0,0,0,6.323,6.548l0,1.584c-4.488-.467-7.753-3.516-8.752-8.186l-.026-.123h-2.91l.024.177c1.02,7.356,6.663,10.355,11.659,10.721l0,1.482c-5.838-.378-12.442-3.784-13.651-12.246l-.019-.134h-2.974l.017.172c1.063,10.4,9.582,14.485,16.623,14.832l-.038,10.833h-9.047a13.461,13.461,0,0,1-13.446-13.445Z"/>
    <path id="Path_1934" data-name="Path 1934" class="cls-1" d="M1380.3,4455.7a2.54,2.54,0,1,0-2.527-2.541A2.533,2.533,0,0,0,1380.3,4455.7Z"/>
    <path id="Path_1935" data-name="Path 1935" class="cls-1" d="M1386.662,4455.7h.01a2.539,2.539,0,0,0,0-5.079h-.01a2.539,2.539,0,0,0,0,5.079Z"/>
    <path id="Path_1936" data-name="Path 1936" class="cls-1" d="M1374.726,4455.7a2.54,2.54,0,1,0-2.527-2.541A2.533,2.533,0,0,0,1374.726,4455.7Z"/>
    <path id="Path_1937" data-name="Path 1937" class="cls-1" d="M1369.3,4455.7a2.54,2.54,0,1,0-2.527-2.541A2.533,2.533,0,0,0,1369.3,4455.7Z"/>
    <path id="Path_1938" data-name="Path 1938" class="cls-1" d="M1404.031,4455.7a2.541,2.541,0,1,0-2.527-2.541A2.532,2.532,0,0,0,1404.031,4455.7Z"/>
    <path id="Path_1939" data-name="Path 1939" class="cls-1" d="M1393.035,4455.7a2.54,2.54,0,1,0-2.527-2.541A2.532,2.532,0,0,0,1393.035,4455.7Z"/>
    <path id="Path_1940" data-name="Path 1940" class="cls-1" d="M1398.607,4455.7a2.54,2.54,0,1,0-2.527-2.541A2.533,2.533,0,0,0,1398.607,4455.7Z"/>
  </g>
</svg>
