<svg xmlns="http://www.w3.org/2000/svg" viewBox="0 0 73.292 73.292">
  <defs>
    <style>
      .cls-1 {
        fill: #fff;
      }
    </style>
  </defs>
  <path id="Path_1892" data-name="Path 1892" class="cls-1" d="M1490.178,2154.817a36.646,36.646,0,1,1,36.646-36.646A36.688,36.688,0,0,1,1490.178,2154.817Zm0-70.578a33.932,33.932,0,1,0,33.931,33.932A33.971,33.971,0,0,0,1490.178,2084.239Zm-3.161,54.737,17.883-17.883a4.133,4.133,0,0,0,0-5.845l-17.883-17.882a4.133,4.133,0,0,0-7.055,2.923v35.764A4.133,4.133,0,0,0,1487.017,2138.976Z" transform="translate(-1453.532 -2081.525)"/>
</svg>
