<svg xmlns="http://www.w3.org/2000/svg" viewBox="0 0 39.569 39.569">
  <defs>
    <style>
      .cls-1 {
        fill: #565656;
      }
    </style>
  </defs>
  <path id="Path_1942" data-name="Path 1942" class="cls-1" d="M1679.459,2500.931a19.784,19.784,0,1,1,19.785-19.784A19.807,19.807,0,0,1,1679.459,2500.931Zm0-38.1a18.319,18.319,0,1,0,18.319,18.319A18.339,18.339,0,0,0,1679.459,2462.828Zm-1.706,29.551,9.654-9.655a2.229,2.229,0,0,0,0-3.155l-9.654-9.654a2.231,2.231,0,0,0-3.809,1.577V2490.8A2.231,2.231,0,0,0,1677.753,2492.379Z" transform="translate(-1659.675 -2461.362)"/>
</svg>
