<svg xmlns="http://www.w3.org/2000/svg" viewBox="0 0 39.569 39.569">
  <defs>
    <style>
      .cls-1 {
        fill: #188086;
      }
    </style>
  </defs>
  <path id="Path_1945" data-name="Path 1945" class="cls-1" d="M1363.807,3488.256a19.785,19.785,0,1,1,19.785-19.785A19.807,19.807,0,0,1,1363.807,3488.256Zm0-38.1a18.318,18.318,0,1,0,18.319,18.318A18.338,18.338,0,0,0,1363.807,3450.153Zm-1.706,29.55,9.654-9.654a2.23,2.23,0,0,0,0-3.155l-9.654-9.655a2.231,2.231,0,0,0-3.809,1.578v19.309A2.231,2.231,0,0,0,1362.1,3479.7Z" transform="translate(-1344.023 -3448.687)"/>
</svg>
