<svg xmlns="http://www.w3.org/2000/svg" viewBox="0 0 20.023 18.623">
  <defs>
    <style>
      .cls-1 {
        fill: #fff;
      }
    </style>
  </defs>
  <g id="Group_116" data-name="Group 116" transform="translate(-9002.5 -6672.559)">
    <path id="Path_1588" data-name="Path 1588" class="cls-1" d="M9015.377,6685.267h-5.73a.753.753,0,1,0,0,1.506h5.73a.753.753,0,0,0,0-1.506Z"/>
    <path id="Path_1589" data-name="Path 1589" class="cls-1" d="M9020.889,6677.048h-2.013v-3.736a.754.754,0,0,0-.753-.753H9006.9a.754.754,0,0,0-.753.753v3.736h-2.014a1.636,1.636,0,0,0-1.634,1.635v6.654a1.636,1.636,0,0,0,1.634,1.634h2.014v3.459a.753.753,0,0,0,.753.752h11.223a.753.753,0,0,0,.753-.752v-3.459h2.013a1.637,1.637,0,0,0,1.635-1.634v-6.654A1.636,1.636,0,0,0,9020.889,6677.048Zm-13.235,12.629v-5.228h9.717v5.228Zm0-12.629v-2.984h9.717v2.984Zm10.47,5.9H9006.9a.753.753,0,0,0-.753.752v1.77h-2.014a.129.129,0,0,1-.129-.129v-6.654a.129.129,0,0,1,.129-.129h16.755a.128.128,0,0,1,.129.129v6.654a.129.129,0,0,1-.129.129h-2.013v-1.77A.753.753,0,0,0,9018.123,6682.944Z"/>
    <path id="Path_1590" data-name="Path 1590" class="cls-1" d="M9018.123,6679.609h-1.683a.752.752,0,1,0,0,1.5h1.683a.752.752,0,1,0,0-1.5Z"/>
    <path id="Path_1591" data-name="Path 1591" class="cls-1" d="M9015.377,6687.353h-5.73a.753.753,0,1,0,0,1.506h5.73a.753.753,0,0,0,0-1.506Z"/>
  </g>
</svg>
