<svg xmlns="http://www.w3.org/2000/svg" viewBox="0 0 64.374 45.072">
  <defs>
    <style>
      .cls-1 {
        fill: #fff;
      }

      .cls-2 {
        fill: red;
      }
    </style>
  </defs>
  <g id="Group_145" data-name="Group 145" transform="translate(-11582 -4055.287)">
    <path id="Path_1654" data-name="Path 1654" class="cls-1" d="M11645.048,4062.339a8.07,8.07,0,0,0-5.674-5.674c-5.038-1.378-25.188-1.378-25.188-1.378s-20.148,0-25.187,1.326a8.229,8.229,0,0,0-5.673,5.726c-1.326,5.037-1.326,15.484-1.326,15.484s0,10.5,1.326,15.483a8.065,8.065,0,0,0,5.674,5.674c5.09,1.379,25.187,1.379,25.187,1.379s20.149,0,25.188-1.326a8.067,8.067,0,0,0,5.674-5.674c1.326-5.037,1.326-15.483,1.326-15.483S11646.427,4067.376,11645.048,4062.339Z"/>
    <path id="Path_1655" data-name="Path 1655" class="cls-2" d="M11605.809,4087.474l16.757-9.651-16.757-9.651Z"/>
  </g>
</svg>
