<svg xmlns="http://www.w3.org/2000/svg" viewBox="0 0 21.561 25.542">
  <defs>
    <style>
      .cls-1 {
        fill: #5b5b5b;
      }
    </style>
  </defs>
  <g id="Group_253" data-name="Group 253" transform="translate(-1463.383 -4211.403)">
    <g id="Group_252" data-name="Group 252">
      <path id="Path_1897" data-name="Path 1897" class="cls-1" d="M1484.571,4224.334a2.721,2.721,0,0,0-2.33-2.118,109.224,109.224,0,0,0-16.148,0,2.722,2.722,0,0,0-2.329,2.118,34.5,34.5,0,0,0-.005,10.193,2.723,2.723,0,0,0,2.33,2.119,109.226,109.226,0,0,0,16.148,0,2.724,2.724,0,0,0,2.33-2.119,34.825,34.825,0,0,0,0-10.193Zm-15.038,1.266h-1.56v8.292h-1.45V4225.6h-1.532v-1.359h4.542Zm3.937,8.292h-1.3v-.784a2.085,2.085,0,0,1-1.489.883.8.8,0,0,1-.839-.534,3.675,3.675,0,0,1-.115-1.07V4226.7h1.3V4232a3.991,3.991,0,0,0,.012.506c.031.2.13.305.305.305.261,0,.534-.2.823-.61v-5.5h1.3v7.191Zm4.95-2.158a5.756,5.756,0,0,1-.131,1.449,1.033,1.033,0,0,1-1.041.808,1.776,1.776,0,0,1-1.347-.8v.7h-1.3v-9.652h1.3v3.152a1.766,1.766,0,0,1,1.347-.78,1.032,1.032,0,0,1,1.041.811,5.563,5.563,0,0,1,.131,1.446Zm4.918-1.2h-2.606v1.275c0,.666.218,1,.665,1a.56.56,0,0,0,.582-.523,7.841,7.841,0,0,0,.03-.882h1.329v.19c0,.42-.016.709-.028.839a1.863,1.863,0,0,1-.3.781,1.8,1.8,0,0,1-1.576.779,1.864,1.864,0,0,1-1.577-.736,2.78,2.78,0,0,1-.419-1.691v-2.518a2.8,2.8,0,0,1,.4-1.695,1.853,1.853,0,0,1,1.561-.737,1.809,1.809,0,0,1,1.537.737,2.828,2.828,0,0,1,.4,1.695v1.488Z"/>
      <path id="Path_1898" data-name="Path 1898" class="cls-1" d="M1481.386,4227.786q-.654,0-.654,1v.665h1.3v-.665C1482.035,4228.119,1481.817,4227.786,1481.386,4227.786Z"/>
      <path id="Path_1899" data-name="Path 1899" class="cls-1" d="M1476.551,4227.786a.935.935,0,0,0-.65.317v4.383a.928.928,0,0,0,.65.321c.375,0,.566-.321.566-.97v-3.069C1477.117,4228.119,1476.926,4227.786,1476.551,4227.786Z"/>
      <path id="Path_1900" data-name="Path 1900" class="cls-1" d="M1477.278,4221.254a2.118,2.118,0,0,0,1.505-.892v.792h1.316v-7.267h-1.316v5.555c-.292.412-.569.616-.832.616-.177,0-.28-.1-.309-.309a3.058,3.058,0,0,1-.016-.511v-5.351h-1.313v5.747a3.652,3.652,0,0,0,.117,1.08A.808.808,0,0,0,1477.278,4221.254Z"/>
      <path id="Path_1901" data-name="Path 1901" class="cls-1" d="M1468.111,4217.205v3.949h1.46v-3.949l1.757-5.8h-1.477l-1,3.829-1.037-3.829h-1.536c.308.9.628,1.812.936,2.717A23.981,23.981,0,0,1,1468.111,4217.205Z"/>
      <path id="Path_1902" data-name="Path 1902" class="cls-1" d="M1473.285,4221.254a1.8,1.8,0,0,0,1.536-.744,2.841,2.841,0,0,0,.409-1.709v-2.544a2.846,2.846,0,0,0-.409-1.712,1.951,1.951,0,0,0-3.069,0,2.824,2.824,0,0,0-.412,1.712v2.544a2.812,2.812,0,0,0,.412,1.709A1.794,1.794,0,0,0,1473.285,4221.254Zm-.628-5.261c0-.673.2-1.008.628-1.008s.628.335.628,1.008v3.056c0,.673-.2,1.009-.628,1.009s-.628-.336-.628-1.009Z"/>
    </g>
  </g>
</svg>
