<svg xmlns="http://www.w3.org/2000/svg" viewBox="0 0 17.253 20.439">
  <defs>
    <style>
      .cls-1 {
        fill: #fff;
      }
    </style>
  </defs>
  <g id="Group_288" data-name="Group 288" transform="translate(-1933.315 -266.101)">
    <g id="Group_287" data-name="Group 287">
      <path id="Path_1957" data-name="Path 1957" class="cls-1" d="M1950.27,276.449a2.179,2.179,0,0,0-1.865-1.7,87.457,87.457,0,0,0-12.922,0,2.179,2.179,0,0,0-1.864,1.7,27.685,27.685,0,0,0,0,8.157,2.179,2.179,0,0,0,1.865,1.7,87.446,87.446,0,0,0,12.922,0,2.179,2.179,0,0,0,1.864-1.7,27.875,27.875,0,0,0,0-8.157Zm-12.034,1.013h-1.249V284.1h-1.16v-6.635H1934.6v-1.087h3.635Zm3.151,6.636h-1.044v-.628a1.671,1.671,0,0,1-1.191.707.639.639,0,0,1-.672-.428,2.924,2.924,0,0,1-.092-.855v-4.551h1.042v4.237a3.13,3.13,0,0,0,.01.406c.025.161.1.243.244.243.209,0,.428-.161.659-.488v-4.4h1.043V284.1Zm3.961-1.727a4.567,4.567,0,0,1-.106,1.159.825.825,0,0,1-.833.647,1.418,1.418,0,0,1-1.077-.637v.558h-1.043v-7.723h1.043V278.9a1.412,1.412,0,0,1,1.077-.624.824.824,0,0,1,.833.649,4.417,4.417,0,0,1,.106,1.157Zm3.935-.96H1947.2v1.02c0,.532.175.8.533.8a.448.448,0,0,0,.466-.418,6.884,6.884,0,0,0,.023-.706h1.064v.152c0,.336-.013.567-.022.671a1.479,1.479,0,0,1-.244.625,1.442,1.442,0,0,1-1.261.624,1.491,1.491,0,0,1-1.262-.589,2.23,2.23,0,0,1-.335-1.353v-2.016a2.245,2.245,0,0,1,.322-1.356,1.486,1.486,0,0,1,1.249-.589,1.449,1.449,0,0,1,1.23.589,2.259,2.259,0,0,1,.323,1.356v1.192Z"/>
      <path id="Path_1958" data-name="Path 1958" class="cls-1" d="M1947.721,279.212q-.523,0-.523.8v.532h1.042v-.532C1948.24,279.478,1948.066,279.212,1947.721,279.212Z"/>
      <path id="Path_1959" data-name="Path 1959" class="cls-1" d="M1943.851,279.212a.75.75,0,0,0-.52.253v3.507a.743.743,0,0,0,.52.257c.3,0,.454-.257.454-.776V280C1944.305,279.478,1944.152,279.212,1943.851,279.212Z"/>
      <path id="Path_1960" data-name="Path 1960" class="cls-1" d="M1944.434,273.984a1.693,1.693,0,0,0,1.2-.714v.635h1.053v-5.816h-1.053v4.445c-.234.33-.455.493-.666.493-.141,0-.224-.083-.247-.247a2.412,2.412,0,0,1-.013-.409v-4.282h-1.05v4.6a2.944,2.944,0,0,0,.093.864A.647.647,0,0,0,1944.434,273.984Z"/>
      <path id="Path_1961" data-name="Path 1961" class="cls-1" d="M1937.1,270.744V273.9h1.168v-3.161l1.406-4.643h-1.182l-.8,3.065-.829-3.065h-1.23c.246.724.5,1.45.749,2.174A19.261,19.261,0,0,1,1937.1,270.744Z"/>
      <path id="Path_1962" data-name="Path 1962" class="cls-1" d="M1941.238,273.984a1.435,1.435,0,0,0,1.229-.6,2.267,2.267,0,0,0,.327-1.367v-2.037a2.278,2.278,0,0,0-.327-1.37,1.563,1.563,0,0,0-2.456,0,2.262,2.262,0,0,0-.329,1.37v2.037a2.252,2.252,0,0,0,.329,1.367A1.436,1.436,0,0,0,1941.238,273.984Zm-.5-4.21c0-.538.164-.806.5-.806s.5.268.5.806v2.446c0,.538-.163.807-.5.807s-.5-.269-.5-.807Z"/>
    </g>
  </g>
</svg>
